<mxfile host="app.diagrams.net" modified="2020-09-12T09:49:46.195Z" agent="5.0 (X11)" etag="fafEaIa0Olh0YVM63Uy6" version="13.6.10" type="github">
  <diagram id="NHp3oAHKT3f99LUaL_mA" name="Page-1">
    <mxGraphModel dx="803" dy="-634" grid="1" gridSize="10" guides="1" tooltips="1" connect="1" arrows="1" fold="1" page="1" pageScale="1" pageWidth="850" pageHeight="1100" math="0" shadow="0">
      <root>
        <mxCell id="0" />
        <mxCell id="1" parent="0" />
        <mxCell id="gMgdH8OOwdyxqw79s65G-80" value="" style="shape=image;verticalLabelPosition=bottom;labelBackgroundColor=#ffffff;verticalAlign=top;aspect=fixed;imageAspect=0;image=data:image/webp,UklGRlQSAABXRUJQVlA4TEcSAAAvf8AfEE0oattIUtf7K3/Ee0KI6P8ERKFQlxWvb8bTZYxDNkI2xmZtlsswT7GPZBkXzENgMLpbs2mLQNvaL/F1Abe2bVXVxAm1EvoPnZBB5O52Q+SOG/GlBDeSbKtK40TULWJn/4sidPju/xfkyLZVVY2EwMgJgPxDoFwioNaQCPRL9X8C8M9X72Uy37/cE7/iduWa/WP5sP28fwNcs3/gHH4ztMTVP3B++DYyWWYtm3m4L8eedC3+gaXfpflg0kocHxtgnSyBZayRV5rsX++rJ56+wDEBrBPAMnljquatmNSIGPMAxgXAdhmwHHd2d4eIHYjYaKLlYwrYZoiTS0SSAJRlyPyQlAgKohDRt8q+KCS7vC0RcQLADkD4RIDliRvAAYAkAJXYRTuInopix44dAHYAjo8oih0RAJhCUppC4xM7Q4R/tFj//9+sJOl7ktSt6qqetW3bbq6NsfF8/wXjGR/Z2+61bdu2OSrdys3v1XWTc37nJDWPv8XNqG6amanGi6627eck6f5+/39V4xorWyty5N26tisae2Zt6wB4AhvtAdi2bcbezc3mVPX/91GytW2RpNz3i8gsxZ0Z7MFhCz3F3d2lBXd3GbMJmzFiIe5Oe0R8EqhtO97m+b4/btTUtjXU5mzbtm3btm171eytnK26jZP//yVIkiS3TW50CAFdzQscw9AHAOEVzdpqIoCQgK+dXbaa6OpqW71+WoCSs5xdAGnbQfX6qffOqgHr7jIYtFtNpHr9lABpW9bX1+4ubVu9furPzq4aWGtFl0GF+2nuEWBW3ZvV66fdyt0jba3qUr1+PttldmENDIAL1tnjixQ1g3ZpgL4J1lmnrhtqjhltG7IL0DYldS783qZuapa8mpIO8oPV/MdZTXhnF5G9qXU7UztaogMNTkCx8YKwT9hXtRv3+Ld5d8q27B7Ob9iWNiTLAUi7WtwO/vG0Wz4Pj6vBkPbAhyQFSCJpRNwtcZ4unZFNOLrhgrBbDzI/5YLh+ZB5HrhWSgDtA3xdwr4zbvvKI2YKZNyAuaSAJJlGhFOWppdxlcNSHrV6glfBDWZtNZECBnXyHZ8Jo9ojEboPWAgSbHVMwgj5t+++zQHmwF82a0A24fdh9lyVFIlAYitxm2zYGw2pqtHlMQZ8Cb3dkgy/HdfJGXiSakwqS6e30e6jj/xyK+B35PblhU0HFkFDu1sDVyuT4bN/tQ+7jyRZB053fuufqSpcPW6bDQcB2RjiyvSw87mG+uxgVuGQF9afqRf5RpfbAldWuekaH086cmDC7WMZC1glKpduzvBBw6n6aTe6GExbiqQe22WitQrOGDBOm803zNyzbxh9An2GLAP4L3KQCs5EvSCLIpfE9PkpN3oaZjfLIY11wKKiWNPEPO3g+9Gs6gKfERYzDAlALvMrCywGLwNht0itLImhA0NJUT531wchFR1cwA+RUcGw218mhRbs8Au2I3p3OFloSgIafqsJAAwDBeH0gjsHQK5X5twJUkVKwxGRDo4CUsW5E4SazM9gZpBvuWDRVXTuBB7gq8ptE1RSkWzcs/yt6Ny5LeMnkWKVWwOVXpBu2j1/r+jcubtKzCJ3VG6ToDJTSrlp71JU0blzT6ZLL20LZgb3zbv7WkXnzr2RWeOt/sF0i8TNO0yt6Nz5ka4u/nhicQPmULvTvtnPmDmkqOjc+dNDg3ZbRopwM9C3SYZ0N2y8K33uvOXpG+Kn3bu0eN6DveiMFxw546W+ZxIFf8Bvk3kY9d0AOivAAy3gJF0MdNyZLovHqzefssXp9setbR6xudo9ZleWPuECx156wde5RnMS9QdRv5BL/g3/OXobmILMnRtuX3wed+PRTes3Zm8yYTwsPQ0ZII0kgRFc7TW9ABRZw05/OmqkMowp84hXHThF5fDAQYfe/sSj2zvTdsVNjTF0N6RBMkhyCem8yELwyXvuvOuGRXrT4zIy6ukEbWOtAThTHTSHoi5YAhwJ6qEXB9GD6cxmLa3utPEn1djacXRUhjZAYq0BLEZ2vGjTqzLPufMW/dhGRZxB6GwipcpOaQVYx4LpVT9vXw5husy9X3QbgdWN/O8QmePcD+/L2odePLYed8vt1qZjERlxIp2STNkpxffNbcKtd5tJkwLoZUtu/OMpk2gT9UgRHEinpLf5/fGp7D690Yv6dfGSKlR1dBMAUd2sduHJpYoe0U0Othrgkuil/tKSTNpMjMe/UjRobgdKudyk9pvHluHxHQ9RqP3gv3VD1ijX1EwFNNr9Tu344eTIFWuR87+Y5grnfWUE0ubnf55XIVnfNLcjGwMNwbefHn48LvuQ2niXXaoggTQlKWeUsGeWoZP198VTkxw88ZMpzRv27VVZpcvjTlVWSVOG9huaYl/WezBVB3Afr1WYlXpB3UJAYoIB4P3Y7C+hgC0Cum0730n8wQN7nHrj9Vl6rChUXDx5kKPNL9+5/Cqqj8puK1EPVkzNKpW6/l9nnD4kQgbItfT4xRuXGvde+sLgXRe8qu4u7iwFvFoUQxlooM3F/57JTs2eNFEfSlTcyw9cGa7Zaj4TY9FMDEuU+qGp1oNJ1ibvv/Kp1bsOvqrOujELvNBJmmhj83XS6tsv7inoLa+2K82GlGbdTjV3vi9rtaiH2vuJJCWUglB7lR173sgF0edNPUWhe4LPwNcpxjLMrhd+8812OnztsatmSk25z+0QWqjmzt05NDfpJz0WMACZ61ECJ4Bfd+ovUeef07LQaI/UDrhaRKXYYSkZbocFUv+aU9Plyw9fFwuM9Fgmeavmzi8dVz4mWemzOn/vakCNqwewgBvkeU+/Rt6+f280pKmxBEqUY2ZQDpWq6PCzw7vhWmejBWN/9vNGFFh2Nek0WXc9AHwAlxfdfRNVzJ1//KW48SM2bekFwQd81fZ5z9N7KZB/9r4K/+x9lfKZBwz+3GN19E/vTJyq0Tfvu6I6xscLEOBbMsXcCbSAAJ0XTI3SRXVafdNrRutvMi9LS5q58yjkgw8s/v+LPqteapRP1RbUeDiatFO5au4EgeCsB6DB4v+5AfOpC76ltrKi8jzMv+yCs8+o5k7QxdDfA0hLRyb6PITOHLUA6dCTPUA6v+zCc/qq5k5wKBqxv0rP6LUn3zj4qpz58XHNc7/s+NM+O973jI97wZkf9aazP1z2XfRuX5xO0UabIHox1BpKI3n8rjjXE3zPeefwQWp9HoJ1kuXvAWnfIw62RjV3giogBNvUABlqs5ROt1zxlHh0xWttR1e8unFktM694aKbw6PV5qEuE5KqX5zpDNqM4DwO8k2MwRhRCnXpRr5dCxpeP3yf2l8G4FMrckr/3aO5LFTOnWB0PJqcQIMWdIcNOwZvl5EVr6ZcZmcL9GEwzkhYocMYYJ5oCWmEjyKlk5PZseesJw7Z64Hucbf4AbOWFH3vedpkr5w7wX+gRGaYEhDdZKOOtBtd8VrbmNVgCFCRdCIpAWkTQMMYGnqtTXvPfmKV9TQZEBtmKQHFjQ7TUj13gt0tMtt14iKUVuuap+Oh5wtxJK3sISEY7mjv4O6+tk5geSvqpE5cKtRj7tzm0zEfW/2gJsvxlIYgvcOAxGZsxV6N0YNBE7LABCTAAE3JHvJpy6EsyVM9/WaHPe1pafHF7sFevxtf5CRZNzQM8hvBUL8u++98dk+8PWyX99UzuT0fcC6Az8ZDyX++WZto0TOGgRatb0iSooOMMavoz/0LjF+Ju3t8q1yvSct6nRNgM0ovFpZe633x6sZd+b6tjFbRyNy2M+nhxOikW+PzE0+LiBTgQlp4hMxEAN2u2GC6O5H7enf7oi+5T2XGnQoe2kHuTPx5Yi591/b2/VegWSsl6YbthQkA/EfW3tTG0k98/NBzsmhsxSsMtD9gXPODz4KGaL97HPMEU6zw+d7DD0BSa4oWkL3X5RnLT7DNdL38B/dcWRLivCPIA6OAByDS8DOSJqGXoQ9CBsqc/IcTM2zn66/dJC3W+0lg0DDoypR6ComlArgJhgCn9GiMqECpQwboA3ohlrSokwZGf/6mhwuCnXcEn0E+OA6OglzwoSFtLrdtZeglATf5CmO9Rw9ft3bl/4+Ve94RsEJV8My0wamzhx9W7Lwj5FP4pA2cvPh/7Wn/HTpS9nnHLx/5FAVyQGxv6hkFgNUbA9QvKAxXg8B+u8+ftZcWbodD224VqjzveN7ks+Ru8ZTyzA83Xf/QRvQtY810g7PUzKyLwB+WAIKkWxAn67DZF/ywmD/lo8nx992O4tL2uOFPEyvteIdXZNAeVZx3vPH0k+p1U0/1GZ166tgu3g45+G/d8vzjbr8e+iSgEalG5FuSnR+FvKgcvLtEEtRAX6eHMQ29pFtgEpjwDkT23fyYO1W3PebOTrc5+u4Ntzz+nmeX+/dvPF79uuMf/72HBkWM4NNQeBuFK5BroNYK0FlbhbjOO9588mHZuqkDo7vWZ8F+0BOEA0nxyHp90hzzA99IitpX+xgFeiaBZGzVFxwhQV1qVQrGgWhgDyhJQrBmBAQWkAd9br1DB4DB47zj2PRrzKSdnpBZIBMI7Ad2kZOgB0nwGLxkKUgyRgsUJCgdgOtkMSQJfoJ5f3TSwUZ73hEOZoqaAFzpel8RFQuekRQWsDwcUjPAShK0iszZjpCELjJ6ErjN9wy3aVvYR8t3CHEgjM73FVAIUkiCK4YnpNduT5HUAlsS3N0+gxEpIklbyNow5z3DzRVA5p47R6dfk4qEt3S/r4gMBXtIQk+hnzFAz5VIP3CY3DNYkmbazO6zhpSAbuvMd04wyjl3wl8ig7/qYBtxkeSR5XIl6h2IJN9/9rD1b+sTqagTRXV5uPw/OY7l3qQlbIAeGG2vJzhFCyqpcQRUkDzJT2OOl8sI/68Vm0ryyyfm++5BqYW3ij5ITe9a+5fRFRf/s/P/oC2AhZRSBZwjSUhflksCZvqWkNwzSIrIPM1kgEyLRCORYmClxYA6YrndBzaVazFtIAovSe6YsRQqXkEiQEASYAJEiiw6XFI+tkD3cz+U94kUe/MNNIzBQBI8Mf6Vzms6GUBQK4ZLBaAK7KOOkTeAIzk58Y89vfmG3PjdbE8CIxBCFyl7iWEfqM5LTBuBSSnjJck3D9GJ/pEm/rwDwTnvVU+SIAIcVFoTvSkHfBN1nEoR78gWyIe7VaA/7yRd0NFbSIIBIlO01cAx8K1v0tZIoOtDwoIbdAXf2NukRwGJsvxY9urK6J6EkyR0lRboGpd/JSSBEdIz/zxccROp/fIREz3a0qApXY80oO6LqFWf/xAnZpMEl8E+khAQCQq9krqjLRlF25SuR5TBpg/UqluZSAf+dt1Bwp/ZGQoqSaNhEgxQkIA/Gs2AkPVwEJcuxT9D5kek3RcQtjTmBJJEBvssOJMGTJc2kzXQGoSly3A1CPpgNqpJcHhUxJcUaUuaBKOBDBSfGQhQn9Jy3j3eejj69cuACJJIIAk9klzZh+7vDJYU+CueFFDJAhBAgwfgaSzTDFjYxySoasXRXJisBjLThqZNAA2FA72AA2RU2ACeEpGRZJSBiYaCCbhDLPqGIdYoYJC1LUL/IzJNVrOmQXIlqqSkQEkkxICaJGAEjpWxLYoCeRaI5r8zek1wgFwwGRwnSUaAGmsGMIwxjSDbR1sSAvfgsUCuHKRHGCocAwG8x8k0lzXnE3aRZFQDz1tYGYv9RMKvGYHz4yJX4howx8Cz2hZTSEvWNw36q+gGQdQVWI11pf+B4UD/+DUER8Vn4g5WqsI7C9rD5+Khq/SHMRMQ6BeF65dpB3cWU8ECCUGisRIsEohfwjAaJQfQLkxOmcelnjgkHd6VY4pkxlzohXmZkClEEghp4Ee0OQo8i+CQdjZALgF6Kwykh2PuHa1rXSksLDyKU32i3G0bsCgilwS5YEHOmw5tUiADjOIp6nn5WjDsA5X527Z9GHq01b+bv2k4USAdKFMV9M+bhhMBklYbA8rnnTYfIFan7gS2fJ5pB7XvdYdvfnyjJbhZGsur6+x38q/k6w5BC38S4JeccNcd6nn/w17v+Arzgl13qOcdAXorLCj5usPltrjePFPM2wdRvWMQ9cGDh+ctPfreNAw92nL3IOrdA6rtM2Fa+9o+s2Z2D1q1e0B94MCJtTb0352UsIpRrHL+7qTUaP9arOTrDpu6rpsQXQ5dMyAboC+pM+lz3WHdNE3N6neh/rrDur/mRBe2yq2mv+q50WWOb9ekTu4emSNdrpC269wrpJ5LXXTHm7nXhQA=;" vertex="1" parent="1">
          <mxGeometry x="110" y="1750.57" width="60" height="60" as="geometry" />
        </mxCell>
        <mxCell id="gMgdH8OOwdyxqw79s65G-82" value="" style="shape=image;verticalLabelPosition=bottom;labelBackgroundColor=#ffffff;verticalAlign=top;aspect=fixed;imageAspect=0;image=data:image/png,iVBORw0KGgoAAAANSUhEUgAAAOEAAADhCAMAAAAJbSJIAAAAkFBMVEX///8aGhrz8/P09PT+/v4dHRz9/f319fX8/Pz29vb39/f6+vozMzMAAAAZGRmDg4Nzc3MJCQklJSVXV1fPz8/d3d0QEBAvLy8hISGenp4oKCjp6enGxsZ0dHQICAgUFBOMjIzX19ddXV2urq7j4+NCQkK4uLhMTEx8fHyjo6O0tLSRkZE3NzfBwcFAQEBra2vqwuYjAAAT0UlEQVR4nN1da2OyOgwGRK5DnfM22Zm7uLm97vL//91pm6RFoFAYTBwfNsDY5mnTPmkT0LLgcN3CiaU76V+22+LEEQRw6WZO4BNPnXj1sp5e1tLIkkgT2SZqwhFHcNuNY7jtxTHKRUHupJFsXCtLxVkkImUDrWwTNeGIQrjtRiHc9sIIawmxiJhOMrIuyVp52YBkUSNVXKQpziqpWiebrbqgZpCTFaVGI7zyR1BLMPLhm7GDtUQOFhGS7GiEhTuhpZH1Udarl5VVe1R1oK+6iZrCZgk3U7r+m05e1vG1AJ0mAHWyEckWqx5pq5aywmbJclUzOp0CzPS2TtbVN0YRoK+qrlVTWLGLc487cgoAw9w3Gyht0oOhApirOihUrdpWydZV7YItImtke+V8JloEqDXRejVl1blvGhj3hYxBksVa6k204zFYYqIGY7CopiHAbieO/sZgCzWxlrPRRAVnVpqosZoe/+dG/QA0cAoa0UQrgNxtdOOwlzH4UxMtAGwxBoHrg7h2/u14DFa5aiZtW6emqtrnn7i4yPiDNIGuLTL+hbhqrdSkb3ag9DBctbyadPVHXLWMbJgFeIYx6LQA2EZN96SWv+OqyaoF43vhb9HEr7lqsriAb+i4cfRXVvRFNZHxh+yqNVnRF9VExidFKuxkCDTxg5GUu8IvWh5Ct2iv1Yq9nIgb50WUrJuXLYjoZYtVB/mqDdTMA4yt5fuUHW9vUzjopHCj7MRApGfZ0xvHu8DKAQzSp4Qd99f39wmeiP/Jdf7kXp20kK0SaSJbW/X61TrtwX1yP7Ht8diGw+Ckc9lui5skzzA6hAWz/rxa9aH0+QCOx5NkTwOYBwhek78G0LaTKYZ7vIhNS7P7PwfQ3r0EyPj8z83qnEr3AtDezVMRkQGeulnhx5MJq24iDmbK4pA3iifjFrJ257KFTxDKPA3UbHqzw7vJHziwJydzx8oihLvJQnoG5DTEdIeiqx4xaRDrZF0KwAZRQYROIinrGst6UlZbNTtJJmD581EW4Qq78A6r9cnJG9Vu5lY62wHJyl01VJFEYiquEKf1KlYTSrZETYGQGW8GYRQgwnGyIKUvdLnEZRPwXXYCoQu3sQ/HiLD7OMYvrehBNoHJRiBExo8BIbstEF7sih5lkwnwIUMohqlgfI6QT9Ec4aUFXwpVJzby4SgSM94J4zOE/e2q9QUwr2YCzMcZX0SehBwxPkN4acGXopoJ8WGaCSEyhMiH0SCCLz+pegR8qGP8u+iCaQIAxlWMbxPjX1rw5US2hPHDPONfWvDlVDbL+JTXlmP8wQdfqqvOML4bU17bCeNf7hgE2Qzjq7y2LONfWvClIJvQCtiJVF5bhvGH7aqZOFGK8cViC6LcGcY/q6umK65JY4SK8S110BqfMf75gi/dpPOExPh2GeOzFXBcB3CYwZeM8XjI+Fk+dL084w+KJhqNDtZeRcZ3R16O8S+UJlDNLONTXluO8S9qRV9UM8P4lNfmEuMLPjzDGOwmuEyyCe55z31PRbmR8YVPM6gxWL+iL6qpGD+EKDcvPMP4Z1nR65RutX+TYXxxnWN879dW9L2MQV5uNePfRRe2oi/K+pLxT1bAkvGDHwE8u4nyjfISxg+CPOP/2oq+45xBoSYyfmbP26M9b8n4l7SiL6qZZfwA8tpCYnxYAQ+CJtqNQSGbYXzKa7NOGf9yxyBUrRifMtmtU8a/TFcto2aB8S3rhPGHtKJv4Kpl1ExklBtFACExfvBrK/puXTVVtW7Pmxg/bDMGfz34UgUwLGd8GeX2jAG2C77086DqiZoljB8rxl8YAxyWq5aVLTJ+kI9yXypNYNWC8U+j3NHpnvdFumoZ2Qzjq7y27J73ZbpqmapVlDsujXIPYUXffgwKhCrKzUUKUe52k4ycqyOSzSlt+fkxKGWLve377XvQitUKGKsWCOWed1xvJ7HvkSL4dfXAnwSIhccjWnBi/cqchaxrqXdZyMagVbismj9I6JYCLFGzNspd1YNPyYodu+QBATriOpnhM4x+suPX18xdOopPVvcHbIz45ZpffvjYg4dkx2WZzSzgS6tk70PVD+JGssSqb1lJTDY5lgEsU1MT5ZYIrQqA1vP8ih/rJ1HLyPrcwDWIuIuxuNzOgmA/EadXH6Id3Wi5FpebR8i9Cz7g4zlrcjzdfGIpN0J08w9jRP9txcfjpSlA07y20jG4nJNiQBNTqH2yF7LxO3w8/+dZ3staKsaKi7At5pBebj2C5HZqOdYbFDJ/h49S2UwCYAQFrQ+BsVNgkNemn2QOoPduD8slhLF5FbIuNveW73E9wPnmWbQXXW7foDw0hvEnoyoyhBn09itevsAoSm344oO515ONcpfntVXMoqT3Z8xnxj1cXW3/47KRdZWx4bsxacYNIgDTY4coLsB+W/P1TbSD84OoOsAqrjZLUSMC3jRY9GSj3Pw7Xj7KXQEwwPbeHkXCKtbO2lvIon2BJTofCFdQSoqSvPd5cQB4PRPz0BOiT0Vvf+DV5jnbpl/OyNhvlYwPUe6yvDYtGY3icaabaAQxxMuQ1XIHMFZiIzb4Bk3XDucWags+gbDJIJUX/MDhO35krENWiQYdx9AWbFSaez31eW1VrhrqDcZ2INObP/Nqj3NpbVYY41CzH/nlVLbFjD+PtLDRSEW5j9j37zGrWrbF+iNmE20EkptX17QHdXltKspd7cn8QzPls+ceZ1amzZuytvmtaAx3TxMr/+jjSh6czqHX0BIiB1pq+8ZpVdoFm6EDJ3gEhBPHHGAt41e7ailMCxvOm7yX1k/cjNYH9pn/Bcos0TuBiXbLmXrPv/Ux4zfmvE9h0gV+CB0ca+sbrj1HuxZdPn9mjQEtim1h5lGWZrK7xbw23WrihjrKi3lzbx+EeuM9kSUHC+4X6s2N9h9vi5vXOfap9wWFLC1oDJx31w5Oz/MFl1x/W9SlSKNGi56gjPH9fJS7wqU/gt7f1sjhes6fhd58zoARxOgB/Uv0cHbslPfeeia058ziCENgMzAqjfPu5BFHwQZGOPMr0BAmqTHA2DCvTbuaiKC91wcnEo7Z+E4AYc4J9tlG+u7eGIeTFX0Ic3U/rsA5gTK4/WJjwPzFe4r3GYM+42UxZnGAVW6MTZSrmY9yN8lr4842WNh6j829d2zQOwY1P1L5Mji4sfkMHrfiP3hEzOOBicZeyNUEzLvcb+EijCeEpTBXCbw7MXmZ76EW8to4zNO8tsoVPcwS4wU092EEI3OSwoy4/g5Ikfh5g10l7He7BHeFIZ3BHKSWS48b7KrlBpAJamWGAZbPndsGGw+ZPW9NXlv1ih4qZfPgOmudm08H7gOJC+8EfBw2ZKfC9OIA9H6AwbWdBlJpF6eeWNjFLvWWOEmJsrlhd5rXVrNlkW7BooQ7yZc8AvL8fSmYy3YIoEfroIPo5e2bazkrmPkF8s1rJM0O569JeoS2GKEr4whDZ23iy8UxPVClB/iTvDYoHa1xwYFxr0T4nOuZcFlhTqANKnByPpYfV7j++IBrsMnUU40BTs5mwRFtp3EETtB8IYDKySudvrw8/QOA2qzPxnlthV016xYsRzQ3BwTrhq/3rSQu2nTC4SXmkR1X6QFkRAEziwDyDT+kPejcAH3c7fFFTMcOTF6LyXa9Xu9m1VPFyC3Z8/ZM8tpoVy1Cp/JAkxw6nYc1EZfcVXO+YAJZU+dCPwtJ9LpJVsxfQhK8VUd0/0Hwywwmrxi9YPu5ciTl8tpcqMWty2vLvk/Gkp4jsx++bQRLqvUVOjBq2zCYbekTaIt0TtfodUvZZ/kJemjSq6e2UGu1m5oYUTGvLdTmtZVv/MqFApvwuR+YSmU4jszGbywXCsJfYa4FLQWxTyVAdznPlmGR78SPHRqbqjbNAcypWRLlrstrywVfPscEcAYicgHPlngn2/Fy4bv+4ot5x7olIMLrzobEJHbhrVrBHVWCfeoFctWxdnQAoermeW354ItDam5eIYOK9OZe92nwhWyNL2d5cQvSm5P4SWMcqYwvUfUokm3xDFWjAwH0qOkHULNxXlsx+ELL4EkKO8CkN+P/XPCFsDOuEMWhj80oIx98WWxUWwhZqsTGyctKV1jWrQYgjo5MXpv4BHQuyWvTB1+s292cH5uDT16EuJ6v7uJc8OUx2cJHKW7zf4+3/M7umN+GCK7m4pPrT1T6fTXndzY3LrXt80RMwmIZqZ8qXLUCNstrKwm++PtbcRxf0dEI3uHGberngi/BET54pjjGHd7YF3ZL/h3FR8cRrbXZOb9xp4zn7uZq+/JwArBkqtBEuXV5bRUBUPmAeEi+Q+Bnx6BQBL0Ej2hVPl1efDMevTlHUjBtPqnX5fr7NLQ0ABWbVee1LUjpgomeP0/GLIxZGeWWjD/MPBnTOG2jvLbffki5k5Q687y2YeXJmKTzQNX6vDYch4PNkzmV1aspGf/07S2FvLbKPJkWMfqf58mUypaoWR7lls9yB/U0ca48GQ3AvGzdnnf4gzyZs7zItpgrUZPX5ua+OaA8GbN0nsgor20IT760TOeJiPGr394ygCdffpCvVJ/XNoQnX36SccYZ367KazvnQ8qNAObnN9O8tsuliZIot2B887y2c6RTGrtqpXltuB5DhDiXxu1oos6T+b03M5nntV2Yq5bpB6O3t1zMGCwzNJO8tmGs6Nu+cqMkyl3IazvbQ8qdZF4X8tri+ry2C3DVMmrWvr1l6GNQSxMkUshry0W5L9RVaxDlHsqTLxqAOldNFRfVRbmHbaIVHiUBrGT8STGvbWCuWgXRy6pLGN/V57UNfUVfpmbJ21v0eW1nfPLFyFUrrbpJXttAx2DNXFiS1+bl89qG7arVsZlkfN+tyWsbcPDFqlKzLsp9EcGXoquWeWyq5u0t7kUEXyp60Kp9e4se4KBdtQxd10S5Y903f99VM1vRF9Q0y2sbKE1oXbUswLK3t5TktRX7XjZjFwDDRjOueQ8KNUvy2nzF+OIJF5d+n6jyBf3w36NPqmQ9rUhetknVOtmqvDZ79fTfbDb7nvG/2ZOZOqFPZnqRgmzHxVXL/rcqRLldlddmr67vr1erazjk/9zJfeGkIFIqqxFpIltSdUHWrmJ8WHbg/y5/EuUMv9yyK317yx8CqGH8PwSwnPH/EkBNXtsfAqjJazsjwM4boyTK/ad6MBPlzuS1/SmAnPHjYl7bHwJYktf2xwBq8tp6BzhZES/1DVAT5e4Z4OQ+OdxMcIXaM0BNlLvnHkz+447Ue1L2g6BdA9REufsFeP0dhJyBb5P+e1CX19YrQDuh9+9s7P4Ban6VrFeAkwSf0LGeVv0DLM9r6xWgPU7QDQ7zw74PgJpfJesV4Bh28gI/xR3NPntQ9/aWXgHaq6+A24z1fd+83OZVl+e19QqQTaYfd376+JQ0VbqVw3XK+Gro9wmQWU6yspPGK7V2HuXkKlIAg9vkVwByXSctym1V9fW3AhjS2O8fYAul264Jkk85zfBfcS33pC4a4JNYOUGUm/PFMamYTi8P4C45sFHoqrw2dixuevpxZSONVh1XvXnn2xeZt7cIuPF+yY/Hx+Xy5KRwo0ykRHaRGPfK6nuvKa5Wh1JZfGFDqPLaVEjMCnGO9ejN3gG9XzQK0a2kp6GlbECysZLlD3Ibmx3Me1SuW6g61latV1M9PnwCsMsA6GdiPK5WN6YR3uZqwlUveTLPifHEsfsK3AbPr1RknGkA9pMn85AYz4yTSer3k/UJ3+z41+uolsPOFKBI+6zLk2llovSrZL0AtJAtjDgzebew3E7HIP0qWZMxaJxOaS2SAkAdYnu8mpkCbJT1qaLcVmU6Zas8mVjrzZe5ABM7MAPYKIPFV1HuHvJkgpf8/p2+B8fw9GrHJopDGhm/83TKaNls4/d61v3jHfROEWOlG6U0W29JE4D2JEn9frI+WzSNSa6atcfcK0OAtn3/ZhkAbJ55DVc95KqJ3aYmSyv7ellXdRs1Ma+t+3TK46nXXduDfH3B3wdWTRPN1RSM74Vdp1MKl7T5IjZ5ibpOdFR5bU2bpqaW3J6IGUAOMY26MVHqhxPG7zDr/tgOIN9PTZtXXSGLjG+ktCFAYaIPbQEy522+L1X6Zw/o1CvdbAxO24xBkl3t0s6TjTXfbF3Lbfse5H9WH07UbeZ1hwCFnex/GsJO3uS7luufIWsPsP2TL5+Yg9yuB23hvjVu2woTxby2Lp98mdKW5f319X3hBP5nTnIi7Jh6pgANHpKTeW21ABtsjOw/348P0+n07W0KR+HkreQE/j/cvuZ78EdjUEW5uwMoDcKiTPqSbP581r1Fn5BsQ1dNy2Yqyl2j9K8+IGl1NgYjX+W1De7Jl073p38OsNlrxxrti3bhUbZWur9fEey0bTW1/IEx2J2JdvqQcvdjEPPa+rGTIbxEU+a16ZT+7YeUuzZR9atkmlp++yHllgtePcATxh/AQ8qdx2l9ldc2jIeUu1nRZ2QzMdKBPKTcy7PUvdZyTlft5wAbuWoGb0f72a6aOcALc9VqTVTlteVq6Z0mfuBsG41BgiR/lSxfS08Af3sMeid5bQOhiU4jDH42r+0Mrx3r/5UbpXltF0MT5v3QD8A2rlq3NJEDGJ784Dn/Jp1E9FsyEf4wuOuHBdm8SIg/VuI1k7VqZYvFFdXMVQ3fjDCEKHcWAzqJaeUR46/WGci6Ecp6JBso2aAg22XVVpSXhasAc2o89cISPAnUCX4zzssWRSgiaSQbSNnaqlup6am/mRPXcwsnOZEmsmUi7qlIZ7IFNd3/AX5c9FE7876QAAAAAElFTkSuQmCC;" vertex="1" parent="1">
          <mxGeometry x="235" y="2000" width="135" height="135" as="geometry" />
        </mxCell>
        <mxCell id="gMgdH8OOwdyxqw79s65G-84" value="&lt;div&gt;Frontend&lt;/div&gt;&lt;div&gt;Users&lt;br&gt;&lt;/div&gt;" style="text;html=1;resizable=0;autosize=1;align=center;verticalAlign=middle;points=[];fillColor=none;strokeColor=none;rounded=0;fontSize=11;fontStyle=1" vertex="1" parent="1">
          <mxGeometry x="110" y="1812.11" width="60" height="30" as="geometry" />
        </mxCell>
        <mxCell id="gMgdH8OOwdyxqw79s65G-85" value="" style="shape=image;verticalLabelPosition=bottom;labelBackgroundColor=#ffffff;verticalAlign=top;aspect=fixed;imageAspect=0;image=data:image/jpeg,/9j/4AAQSkZJRgABAQAAAQABAAD/2wCEAAkGBw8RDw8REw8VExMVDxUQFRUVDw8PEBcQFREWFhUVHxUYHykgGBolGxUVITEhJSkrLi4uFx81ODMtNygtLisBCgoKDg0OGxAQGi0lICYrLS0rMS0tLS4vKy8yNystLSstLTg3Ky8tLS01LS8tLS0rLS0tLS8uLSstLS0tLS0tLf/AABEIAOEA4QMBIgACEQEDEQH/xAAcAAEBAQEAAwEBAAAAAAAAAAAAAQcGAgQFAwj/xABIEAACAQIDBAYFBQ4GAgMAAAAAAQIDMQQRIQVBYXEGElGBkbEHEyKh8DJScpLSFCNCVGJzgpOio7LBwtEWJERT0/EXgxUzY//EABkBAQADAQEAAAAAAAAAAAAAAAADBAUCAf/EACYRAQACAgEDBAIDAQAAAAAAAAABAgMEERIhURQxQWEiMzJxoVL/2gAMAwEAAhEDEQA/ANvGe5B9hOCAre5BvdvJbRX+NRbiwK3lzDeXMluLFtXf40AueVxnvZOLHFgVPewnv3EvruPR2ttehh4detUUY7lecn2KK1Z7ETM8Q8mYiOZe+nnyGefIzba3pDrTzjh6apx+dPKdR93yY+85jGbcxdX5eJqNdnXcY/Vjki1TTvPv2VrbdI9u7bK2JhH5U4x4ylGPmerPbeEWn3VRXOvSX8zDWgTRox82RTuT4bituYN6LF0H/wC+k/5ntUsXTl8ipGb4TjLyMEHVXYJ0Y/6I3J8P6Aby5jPK5huD2viqWtPEVI8FUk4/Veh0my/SDiYNevhGtHtS9XUXh7L8FzIrad49u6Wu3Sffs07PewnvZ8vYm3sNi11qdTVLNwl7NSPFrfzWaPp31dipNZrPErMTExzCp7wnnyJfl5i/I8eqnnyGfYS+iHBAVvcg3uRLaIW03gVvxLnkeNuLKllq7gUpCgeLe5Etor/GpW9yuS3MBbmLcWLcWLau/wAaALau/wAaDixxY4sBxYvruF9dwvy8wPkdJ9vQwlHrtdaUn1acPnS7X2RW9/3RkG0cfVxFSVSrNyk9+5LdFLcuB9Hpbtd4rF1Jp/e4t06fZ1Iu/e833rsPjGvr4YpXmfdl58s3tx8BACwgAAAAKBAAB+uGrzpzjOEnCUXnGSeTTNX6HdJVjYOE8o1oLOSWinG3XXDtW580ZGe3svHzw9anWheEs8s8lKP4UXwazRBnwxkr9/CbDlnHb6bpfkL6I/LC4iNWnCcH7EoKaf5LWaP14Ix2qcELaIW0QtzAW03i3FsW4ti2rv8AGgC2rv8AGhUt7JxZUt7ApSZlA8W8uZLcWVvLmS2rv8aALau/xoOLHFjiwC7WL67hfXcL8vMBfl5nyulWNdHBYmonllTcU/y5tQj75I+rfkcn6Ta+WCjFfhV4RfJRlLziiTFXqvEfaPLPFJllgANtkAAAAFAEAAAFAEAA1X0b411MF6vfSqSh+g8pr+JruOqtojPPRVWaniqfbCnPwck/4kaHbmY+zXjJLV155xwW5i3FsW4ti2rv8aECYtq7/Gg4scWOLAcWVa6kvq7FWvLzA8swAB4vTUnFlfaycWA4sX13C+u4X5eYC/LzF+QvyHBAOCOJ9Kkv8vh4r/eb8Kb/ALnbcEcT6U4/5fD5bq7XjB/2J9b9sIc/65ZsADYZQAAAAAAFAEAAAADsfRfLLF1V24d+6pA063FszL0Xr/N1n2Yd++pD+xpttXf40Mrb/Y09X9ZbV3+NBxY4scWVVg4sX1dhfV2F+XmAvy8y558iX5eZc9ysB5AmRQPFreyX13Fa8CX5eYC/LzF+QvyHBAOCHBDgv+hbRALaI5X0lUM8Bn8ytCfjnD+tHVW5nzOk2E9bgsTTvJ0pNcZR9qPvSJMVum8T9uMkc0mGJgIptscIAAAKAIAAAAAoAHe+iqj7WLqcKcFzbk2vcjQeLOU9GuF6mBdR3qVZTX0VlBfwvxOr4sx9m3OWWrgjjHBxYvq7C+rsL8vMgTF+XmL8vMX5eYvorAL6Kxc9yJwRbaIC5FIUDxaz5EvyK9eROCAcEOCHBf8AQtogFtELcxbmLcWAtxbGXb8cBbV3+NBxYGG7awXqMTXpPTqVJJfQesP2Wj0jt/Sfs5xrUsQlpUj6uX046x73H+E4g28V+ukSyMtem8wAFJEYQAAAABQAASe5ZuyW/PsIff6D7O9fjqWa9mn9+l2ew11f2ur7zm1umszLqteqYhquyMEqGHo0vmU4x/SS9p97zPbvq7C+rsL8vMw5nmeWxEcRwX5eYvy8xfl5i+isePS+isOCHBC2iAW0RVppvJbRXKtObA8gQoHi+wnBFb3IltEAtohbmLcxbiwFuLFtXf40FtXf40HFgOLHFjixfV2A+V0o2X91YSrTy9rLr0/zkdV46rvMWaN+vy8zKvSDsb1GJ9dBfeqzcuCq3mu/5Xe+wvaeTieiVPbx8x1w5YgBoqAAABQABAABqfo42T6rDOtJZSrNSX5qOfU8c2+9HAdGtkPF4mFL8D5dR9lNX73olzNqpwWSSWUUkkloslbuKO5k4johc1MfM9Urfl5i/LzF+XmL6KxnL5fRWHBDghbRALaIW0VxbRXFuLYC3FsqWV7ktq7lS3sClIUDxb3K5Lcyt5cyW4tgLcWxbV3+NBbV3+NBxYDixxY4sX1dgF9XYX5eYvy8xfkAvyPR23syGKoToS0TWkss3Ga+TJcn/M96+iHBHsTMTzDyYiY4lhG0MFUoVZ0akcpweT7ODXamtUeudt6U5Q9fh4rLrqlJy7eq5ezn4T8TiTaxX66RaWRkr02moUAkcBAABYxbaSTbbySSzbbssu0h9/oK4f8AyOH6yWWc0s7df1cur35nN7dNZl1WOZiGg9DNgfctD2l99qZSqf0w5LPxbPv35eYvy8xfRWMS9ptPMtetYrHEF9FYcEOCFtEcui2iFtFcW0Vxbi2AtxbFtXf40FtXccWA4sqW9k4sq11AuZSZlA8W8uZLau/xoV6ak4sBxY4scWL6uwC+rsL8vMX5eZJSWTbeUVd55L/oC35C+iOe2r0zwNHOKqetkt1JKfd1vk+85PafpCxM840YRortf32p7/ZXgyemvkv8Ib56V+WlVq0YRbclGKvKTUYrvZzG2OneEopxov1893VzVNPtc9/dmZljcdWrSzq1ZVH+VJyy5Ky7j1y3TSrH8p5Vb7cz/GHs7Rx1SvVnVqS605PN7lwSW5I9cAuRHHaFSZ5CH0dhbIqYut6qDSfVc3KWfVUE0m9L6tLLidL/AOOMRf7op/VmcXzUpPFpSVxXtHMQ4kHbL0cYj8Yp/VmfA6RdH6uDlTU5RlGabjKOeT6uXWWTtlmvE8rmpaeIktivWOZh8g8qc3GSlFtNNSTWjTTzTIQlRtJ2F0/pTjGGJXq5LR1Ixcqcu5axfu5HYYXGUqsU6VSM49sZKSXhvMGP1w9edOXWpzlCXzoycZeKKeTTrPevZaptWjtbu3q2iFtFcyrZfTzGUslPq14/lLqz+tH+aZ1uy+neCqZKblRm/nrOGf01olzyKl9bJX45/papsUt88OotxbFtXc8KFaEoqcZKadnFqSfJo8+LK6c4scWOLF9XYBfV2KteRL8vMuefLzA8gAB4vtZOLK1vZFrruAX1dj0tqbWw+Hj1q1VQW5PWcuUVqzl+l3TX1UpUMPk5rSVS8YvsS/Cl7lx3Z1iK86k3Oc3OTvKTcpPvZcw6k2727Qq5dmK9q95dztf0iyeccPRyXz6mr7oJ6d77jj9pbXxOIf32tKa7G8oLlBeyvA9EF6mGlPaFK+W9/eQAEqMKAAIAB9XoxtX7lxdKq/k59Sf5uV/DSX6JtUXnruuv7mAGs+j7aMq+DjGWedGXqc+2KScfBNLuKO7j7ReF3Uv3mrpr8vMyXp7tf7oxcoxedOjnSj2OWf3yXikv0UaJ0r2lLD4OtVjdJQi+yc2op8lnn3GLHOlj97y928ntQABoKIAAAAA9jBY2tRl1qVWVN/kycc+as+863ZPpCrwyWIpqqvnRyp1OeXyW/A4oEd8VL/yh3TJantLa9jdIMLi//rqrrZZ+rl7NRfou/NZo+pfl5mAxbTTTyaeaaeTT7czt+jHTmcXGlipdaD0VX8OP0vnR435lHLpzHendcxbUT2s0e/LzLnnax4xkpJZPTLPNaprgeWe5FJceWQJkUDxaOa6d7beHw2UHlUqtwg96j+HPuTSXGSOlaz5GS+kPHetx04p+zSjGkuzPLrSfjLL9Esa2Pryd0Gxfpp2c0QA12WAAAUAAQAAAABrHo5w/VwEH8+pOb45S6i/gMnNu6O4d08HhqdsqEOt9JxTl72ynu2/CI+1rUj85n6fj0uoeswGKit1Jz74e3/SYub7WpqUZQ3OLi+TWTMEnTcW4u8W4vmnkznSntMOtyO8S8QAXlMAAAAACggAAAaL6NdtylGWEk9Yrr0279TP2odzaa4N9h3fBGHbBxzoYqhVTy6tRZ/Qfsz/ZbNxWnx7zK28fTfmPlpat+qnE/ClIUqrLxevIwjaOI9ZWrVPn1Zz7nJtG5YybVOo1uhJ+CZgcbLkX9GP5T/SluT7QoANBRCgACAAAAAKCAftg6HrKtOn8+pGH1pJfzN5XzVu05GOdCsP6zaGGW5TdR8OpByXvSNjtojN3bflEL+nH4zJbRGLdKsP6vHYqP/7OfdP2/wCo2m2iuZZ6SsP1Mcpf7lGEs/yk5RfujE80rcXmPp1txzTn7cmADTZwAABQQAAAABQI0bjsHEeswmGqPWU6EJP6XUWfvzMPNh6Czz2dhm79WUe6NWaXkUt2Pwiftb05/KY+n3ykKZrQeFSOace1NPkzA69F05ypu8JOD5xeT8jfW9yMj6f7P9Tjqjy9mqlWT3ZvSa59ZN/pIu6VuLTVT2681iXNlANJQCAAAAAKCAAAB2Xovw+eKqz+ZQy5Oc1k/CMjTbaK5xHosoZUMRUy1lVUO6EM/wCs7e3FsyNq3OWWprRxjgtxbOC9KuG9nC1fyp033pSiv2ZeJ3ttXc5j0jYbrYCU3eFSE+Scuo/4znXtxkh1njnHLJwAbLJCggAAAACgACADa+imG9VgcLF6P1MZNdjn7bXjIyHYuBeIxFGj8+aT4QWs39VM3KEcuGWiXYihu27RVd06+9nkUAz154t+J6O19k0MTT9XWh1tc07TUu1Pce+9CJZa7z2JmJ5h5MRMcSzjaXo6qxzdGvGa+bUThLl1lmn4I5/FdFcfTz62Fm+MOrVX7DbNnS3sJb2Wq7mSPfur21aT7dmC1sJVh8ulOH0oSj5o/FNdpv8Alne3YfjVwVKfyqUJLjCMs/FEsb3mv+op0/EsGKbbU2BgpPXCUefqKafjkfjPovgH/pKfdHLyOvW18S59HbyxcGyS6IbPf+lj9aovJnhLoZs78WX62t9o99bTxLz0l/MMeBr8uhOzfxbX89iPtl/wTs1f6b99iPtj1uPxJ6S/mGfbD6W4nCUnSpxpSi5uftwnKWbyz1jJaaHvr0iY7/bw/wCrrf8AIdl/grZv4t++xH2guhWzd+G/fV/tEc58EzzNUkYc0RxFnG/+RMdf1eH/AFdb/kPV2p01xeIozpTjRUZrJ9WnNSyzT/Cm1u7DvF0K2bvw376v9oLoVs38W/fYj7QjNgieYqThzT26mPlNeXQnZr/02n57EfbC6E7N/FtPz2I+2Setx+JR+kv5hkANhXQzZ34sv1td/wBR5f4P2duwse+dR/1D1tPEnpL+YY4DaF0WwC0WEp98c/M/WHR7Axtg6OfGjTfvaPPW18S99HbyxLNH6UqE56RhKT/JjKT9xudLZ9CHyaNNPhThHyR7EVkczveK/wCuo0/MsVw3RvHVPk4Wp+lH1S8Z5H3cB6PMTLJ1qkKS7FnVny3L3s05LewlvZFbcvPt2SV1KR793yNgdHcNg03CLc2snOTUptdnYlwR9da6sZZ6sX5FW1ptPMrNaxWOIXMoB49QFAEDKADAAAiKAIgUACFAEBQBGGUAAAAREUAQFAEBQBCgARlAAgAA/9k=;" vertex="1" parent="1">
          <mxGeometry x="110" y="2019.9999999999998" width="65" height="65" as="geometry" />
        </mxCell>
        <mxCell id="gMgdH8OOwdyxqw79s65G-86" value="Admin" style="text;html=1;resizable=0;autosize=1;align=center;verticalAlign=middle;points=[];fillColor=none;strokeColor=none;rounded=0;fontSize=12;fontStyle=1" vertex="1" parent="1">
          <mxGeometry x="114.99999999999999" y="2089.4299999999994" width="50" height="20" as="geometry" />
        </mxCell>
        <mxCell id="gMgdH8OOwdyxqw79s65G-87" value="" style="endArrow=classic;html=1;strokeWidth=3;fontSize=14;strokeColor=#BFBFBF;" edge="1" parent="1">
          <mxGeometry width="50" height="50" relative="1" as="geometry">
            <mxPoint x="175" y="2059" as="sourcePoint" />
            <mxPoint x="235" y="2059" as="targetPoint" />
          </mxGeometry>
        </mxCell>
        <mxCell id="gMgdH8OOwdyxqw79s65G-88" value="" style="shape=image;verticalLabelPosition=bottom;labelBackgroundColor=#ffffff;verticalAlign=top;aspect=fixed;imageAspect=0;image=data:image/png,iVBORw0KGgoAAAANSUhEUgAAAgAAAAIACAQAAABecRxxAAAABGdBTUEAALGPC/xhBQAAACBjSFJNAAB6JgAAgIQAAPoAAACA6AAAdTAAAOpgAAA6mAAAF3CculE8AAAAAmJLR0QAAKqNIzIAAAAJcEhZcwAADsQAAA7EAZUrDhsAAAAHdElNRQfkBBMMERCxWWeVAAAPV0lEQVR42u3df5DnBV3H8dftHRy/TlDEwwTB1JTwV6KMIaMhEAoZ5onVIMT4I8tJGcdfmTmiOekQ2ojTmIwMqRHFBMMkKpYoYugYYqaklKJhKpqocAcHB8ddfwACcvfdzy579/58v+/H4/vP7n4/u/fa3fs+97vf/e53EwAAAAAAAAAAAAAAAAAAAAAAAAAAAAAAAAAAAAAAAAAAAAAAAAAAAAAAAAAAAAAAAAAAAAAAAAAAAADYLpZVD1iQFVmV3TNXPQNG6qasz7qFvMI0BGB1Dsszc2Aem72qp8Do3Zpv5qpcnk/litw+38HjDsCq/HZOzKEjXwnj9KOckw/mS5MOGe9F60E5Oa/MA6tnwJS7OG/PJVs7c5wBWJYTcpor/LBELswr8z9bOmOMAdgnZ+cZ1SNgpqzPq3LmfV+8vHrXfRyRf8kB1SNgxuyQ38wj8/FsvPeLx3YN4Pn5u6ysHgEz6jM5Njfc8wXjCsBJOdNP+WEb+lIOy9q7nx1TAJ6b87OiegTMuEvynNxy1zPjuQ3gl/KJ7Fw9Ambe/nlILrzrmbEEYJd8MvtUj4AWDso38tU7nhzLd9xvzYHVE6CN9+WhdzwxjmsAB+askSyBDlZmr1yQjOVGwAtzTPUEaOYpuWIc3wI8MUdXT4B23pCMIwCvHsn1EOhkTfYfQwB2zZrqCdDQXI4fQwCOzW7VE6Cl4zOCe979+oKO3pwfZn31ZBilZVmdXRZw/AHZt3pyck02Dzxdnue5ryBM9JicmpsHX6ZOrJ671+Cp73VPARjkybl24KXqPdVTDx049Hw/KYDBDs5tgy5XF1UP/b1BM2/Nw6uHwlT5wKBL1jeqfwqw+6CjLs13infCdPnbQUftUR2AVYOOurJ4JUybYZeZVdUB2GHQUQv6WyfAPR/1Z4KV1QEACgkANCYA0JgAQGMCAI0JADQmANCYAEBjAgCNCQA0JgDQmABAYwIAjQkANCYA0JgAQGMCAI0JADQmANCYAEBjAgCNCQA0JgDQmABAYwIAjQkANCYA0JgAQGMCAI0JADQmANCYAEBjAgCNCQA0JgDQmABAYwIAjQkANCYA0JgAQGMCAI0JADQmANCYAEBjAgCNCQA0JgDQmABAYwIAjQkANCYA0JgAQGMCAI0JADQmANCYAEBjAgCNCQA0JgDQmABAYwIAjQkANCYA0JgAQGPTEYBl1QNgNlUHYNhFe3nxSphR0xGAFcUrYUZVB2AY1wBgm6gOgGsAUKg6AMMIAGwT1QG4adBRm4pXwoyqDsAPBx21oXglzKjqAFyWzQOO+lbxSmAb+bNszOaJp//NXtUjYcrsOM+l6s7TGO5jt28Ozp5ZtcWb+n6aa/OZrK2eCFNmx2HfOI8hAMBSGxiA6tsAgEICAI0JADQmANCYAEBjAgCNCQA0JgDQmABAYwIAjQkANCYA0JgAQGMCAI0JADQmANCYAEBjAgCNCQA0JgDQ2Ip5zl2V3UViovW5KeuqR8DibDkAe2ZNDs9B2d/f5R3k+nwtn81H8rlBf+YERuyAfCgbhv1RAaefO/1XXpodqj+BkMF/GOTer7Qyp+W28ovRdJ+uzCHVn3tYTABW57Lyi88snG7La6s/+7S34AAckGvKLzqzc3qPv7lEqYEBuOsW/r3y0Ty8evMMeVXeVj0B5nfH16kd8okcVj1l5qzJ+dUTaGtBfxvwzS7+28AZ2bN6Akw2l2S/vL56xkza07cBjN1cktdlZfWMGfWS/EL1BJhkLjvnRdUjZtbKnFQ9ASaZy9HZvXrEDHth9QCYZC7Pqp4w056QvaonwNbN5VeqJ8y0ZXli9QTYurn8YvWEGfeo6gGwdXPZo3rCjNujegBs3YrR/AhwY87Nldm0JG9rj/xWHlP9Dt1pp+oBsHUr7v+bWBIbc2QuWcK399acl6Or3ykYu7E83NfZS3rxT27JK6vfJRi/sQTgyiV/i9/KTdXvFIzdWALwuCV/i4/IrtXvFIzdWAJwfJ6xpG9vZU6vfpdg/MZyI+CKXJxz8sXcsiRvbd+syQHV7xKM31gCkKzICTmhegT0MpZvAYACAgCNCQA0JgDQmABAYwIAjQkANCYA0Nh8dwS6PR/KZVlbPXOkVmS/nDSaRx6ARZj0pwPX5enV80Zv55w98WN4SvVAWlrgHwfdsjfmsur3Y/RuzsvzneoRsDiTArApZ1XPmwo35h+qJ8DiTArAOg+pMdD3qwfA4kwKwObqcVPDR4op5ceA0JgAQGMCAI0JADQmANCYAEBjAgCNCQA0JgDQmABAYwIAjQkANCYA0JgAQGMCAI0JADQmANCYAEBjAgCNCQA0JgDQmABAYwIAjQkANCYA0JgAQGMCAI0JADQmANCYAEBjAgCNCQA0JgDQmABAYwIAjQkANCYA0JgAQGMCAI0JADQmANCYAEBjAgCNCQA0JgDQmABAYwIAjQkANCYA0JgAQGMCAI0JADQmANCYAEBjAgCNCQA0JgDQmABAYwIAjQkANCYA0JgAQGMCAI0JADQmANCYAEBjAgCNCQA0JgDQmABAYwIAjQkANCYA0JgAQGMCAI0JADQmANCYAEBjAgCNCQA0JgDQmABAYwIAjQkANCYA0JgAQGMCAI0JADQmANCYAEBjAgCNCQA0JgDQmABAYwIAjQkANCYA0JgAQGMCAI0JADQmANCYAEBjAgCNCQA0JgDQmABAYwIAjQkANCYA0NiK6gFM8JgclUdl7+oZTKGBX9oFYKwOz9tySPUIZp0AjNFOeX9OrB5BBwIwPjvmIzmiegQ9uBFwfN7l4s/2IgBjc3BeUT2BPgRgbP7U54Ttx3+2cdk7x1RPoBMBGJdn+4ywPfnvNi6/Wj2AXgRgXA6oHkAvAjAuD6seQC/uCDQuu1UPGOz2fDHfybV5QB6Sg7K6eg6LIwDjsnP1gEGuzjtzQa772fNzeVpemhOzvHoYC+VbABbmtrwmB+QD97j4J5vyubw4T8rl1eNYKAFgIX6cI/Pu3LbF867MM3NO9UAWRgAY7rasyWcmnH9zXpQLq0eyEALAcK+aePFPkk05Pt+unslwAsBQX8kZA45amzdWD2U4AWCoU7Jp0HHn5srqqQwlAAxzYz4+8MjNOa96LEMJAMNcnFsGH/vR6rEMJQAMc/U2OpZSAsAwP1jAsT9ZwLUFSgkAw6xcwLHL3cV8WggAwzx0AceuFoBpIQAM8/htdCylBIBhDsleg489tnosQwkAwyzPiwYeuVvWVI9lKAFgqD/J7oOOe00eUj2VoQSAoR6cdw046nF5XfVQhhMAhntJTp7niAfnn7Jr9UyGEwAW4i/zzgn/Zx6dz+YR1RNZgPUCwEIsyxvysRy4hXN2zMm5PI+tHsiCrHOHDRbqqByR83NeLsoNSZJleVKOzYm+9k+hHwsAC7c8x+W4JNfn+3lAVmeH6kEs0n8LAIu3R/aonsD9cpXbAKCvzwsAdHV7LhUA6OqyXC8A0NWH3REIurop/ygA0NX7cr0AQE/r8+5EAMbm1uoBNPHnuTYRgLFZVz2AFq7KaXc8IQDj8n/VA2hgQ47PhjueFIBx+Xr1ABp4db5015MCMC5XVA9g5p2W9939jACMy8eqBzDjzszr7/msAIzL1bm0egIz7PS8LJvv+QIBGJt3VA9gRq3Pi3PyvS/+AjA+F+Xc6gnMoC/n4Jx13xcLwPi8NP9RPYGZcn1OzlPyn1s6SwDGZ10Oy6erRzAjrsubs39Oz+1bPlsAxuinOSJ/kGuqZzDV1uX8PD/75O13PnjrFnlMwHHalPfnrByd5+TxWV09hqmxKTfkJ7k6V+UL+WI2zv8KAjBet+aCXFA9gtnmWwBoTACgMQGAxgQAGhMAaEwAoDEBgMYEABoTAGhMAKAxAYDGBAAaEwBoTACgMQGAxgQAGhMAaEwAoDEPCdbRUfm1PKh6xATfz0X5QvWIHgSgm2X5YE6oHjGvt+SUvK16RAe+BejmxCm4+CfLckqeXj2iAwHo5pjqAQMty3HVEzoQgG72qR4w2AOrB3QgANCYAEBjAgCNCQA0JgDQ2KQA7CIPA+1WPQAWZ9JFfMccWj1vShxePQAWZ/LX+Pdm5+qBU+D4HFY9ARZncgCekMtzpAhMsF/ekQ9Wj4DFmu+XgQ7MP1dPBLYVN/NBYwIAjU1bAG7PxuoJU256PuMeq2I7mJ7/DpfkpOybldkxD8vx+UT1nCm1LPtVTxjssdUDetg8Bafr8hv32X14ri3fNeR0SvUn+F5OLP94DD9tzCHVH67ZNw3XAH6Qp+XC+7z04jw1366eNmV+J++tnrAAy/P3eWb1iFk3/u+zNuZ5+eYWz/lujs2/ZafqgUtsj/xhnpIHbIO3vF8eXf3OLdC++XS+kh9t53/1u/l0PpzN1e/89lJ9RW++019PXH9q+b6l/RZg/3y3fLHT5lw4FdeNl8D4383TJ577nsxWqU/Pw6onkOSY/H71hO1j7AH4Vr428fzv5d+rJy6h5XlW9QTu9NzqAdvH2APwjSU4Ynrsll2rJ3CnVdUDto+xB2DtvEfcUD0RptfYA7B63iP2rp4I02vsAXhidpx4/rI8uXoiTK+xB2D3eW4We9oU/aELGJ25bKieMI+3ZtnEc8fuluoBsHVzub56wjwOzmu3et7Lc2T1vHldXz0Atm4uV1dPmNc7t3KnjN+d505C4zD+jy+NzeXL1RMGbHx/PvRz3+vvnTNy9jw3EI7B5in4+NLYinwqr6geMcAJeWE+mYtzTTZlv/xajpqShyrd/r/KAguwIh/LDdm9esYAK3PM1Pxt+7udWz0AJpnLzTm7esTM2uAhwxm3uSSnjv5HgdPqzHyvegJMMpfkmvxF9YyZ9OO8pXoCTHbHPQHfniuqh8ygl+e66gkw2R0B2JDjcm31lBnzjpy34Ne5vXo0PzNbDzSzVXf9LsC38+z8oHrMDPmrvGkRr3Wj2wxG45rqAdvH3b8M9JUcmq9Wz5kJG/PH+aNFfgU5o3o8SZKNU/X4yffD8ns8/dP8TXbJU0f/G4Lj9rW8IOcs+rU/lwflqRN//Ylt74a8rMufnrnvf7VfzptyXHaoHjaVrs6pOSu33c+38sg83se/0I35fJ9f4dry15oH5wU5Igfl4a4NDLI2X8+l+Uj+tctNR8yKyVc2d8qqLg+OuGgbs7bP1wsAAAAAAAAAAAAAAAAAAAAAAAAAAAAAAAAAAAAAAAAAAAAAAAAAAAAAAAAAAAAAAAAAAAAAAAAAAAAAgEX5f7sGr0fEWcIWAAAAJXRFWHRkYXRlOmNyZWF0ZQAyMDIwLTA0LTE5VDEyOjE3OjE2KzAwOjAwzlILrQAAACV0RVh0ZGF0ZTptb2RpZnkAMjAyMC0wNC0xOVQxMjoxNzoxNiswMDowML8PsxEAAAAZdEVYdFNvZnR3YXJlAHd3dy5pbmtzY2FwZS5vcmeb7jwaAAAAAElFTkSuQmCC;" vertex="1" parent="1">
          <mxGeometry x="241.54" y="1738.6399999999999" width="126.93" height="126.93" as="geometry" />
        </mxCell>
        <mxCell id="gMgdH8OOwdyxqw79s65G-89" style="edgeStyle=none;rounded=0;orthogonalLoop=1;jettySize=auto;html=1;entryX=0;entryY=0.5;entryDx=0;entryDy=0;strokeWidth=2;fontSize=14;" edge="1" parent="1" source="gMgdH8OOwdyxqw79s65G-88" target="gMgdH8OOwdyxqw79s65G-88">
          <mxGeometry relative="1" as="geometry" />
        </mxCell>
        <mxCell id="gMgdH8OOwdyxqw79s65G-90" value="" style="shape=image;verticalLabelPosition=bottom;labelBackgroundColor=#ffffff;verticalAlign=top;aspect=fixed;imageAspect=0;image=data:image/png,iVBORw0KGgoAAAANSUhEUgAAAOEAAADhCAMAAAAJbSJIAAAAclBMVEWEgoT///9/fX+Bf4F5eHmMjIx9e33Ew8R5dnmEg4R+fX7t7u3IyMh/fn/y8vJ+e375+fmVlJWrrKvOzs7a29q9vb3i4uKampqIh4jU1NTx8fGgn6Do6Oi0tLSXl5evrq+mpKa6uLqQkZCmo6ba2NrGxMbv9EHXAAAJyUlEQVR4nO2dCXujLBeGrQgOrogbxjW+8/3/v/iBJtEsNptOhHh32qvTpg33YJvAnOeg/SwAIcSziySKoizLQoEzYHIO73afCvltoigpbI9/2QKD0Wb5Lr1QaMZl3eQBZMAwEMcXr3qPP3odveEcbogMpLEgzZt6b4a98Sxje8uQFFHm7KlwwsDw+ZCBQHud7uu5vI90zGCQ05LbFrt3XF8xJF6RmWVTMQ24emf1htMdX727AwxTunei4pVpfcqQFEm4bwLILyxxvwt5XYOFLJ/ZPy6smn2Y2M+IPmhI+KzVKdR09C/NbsBNka7BtDaz4jHP+4Ze4lDuBj6sdg4XBcLTSbz3DIuQBsxaldsYMaE4oOGvszlpSAqHQoDWKjcA+CBZ40xa3jbcZbQF/urlBvhFC+vs5hV7w9BzUmytf+4u4ZcsTsPrmbw0JGFl6NLZHQHI+u/vr4ZFiWW6Nm8BEDS9KcMkB/qnBzgD/GotvVuGdmNJPn0DOjbJpSEx5fvd8huojc4Nvdz/9JhmBujx2NAOVPgBvADtB0MbKnWFHrF2J8NASUENhSdD+OmxLINeqm4IGuUNU+UNW9UNNbYZSo+rvCFQ3tBS3tDYDKVnM5SfzVB+NkP52QzlZzOUn81QfjZD+dkM5WczlJ/NUH42Q/nZDOVnM5SfbzJs1aynGRkqWjH0VYap8oa58oaN8oa18oaxgvWzgsEwRJ8eyzIMhoXx6bEsAqpPhj+Vij+IeldeejBMNPUUESUjwx87UCyNAIxDGGHIzKiVKPFh8nNp+ONRVxFHoDPnpHWW7CooVuBaBah1xinE83SeHTMk9UQCZOXRmdJ1hjRrNFkTlkAHqXOVlL2Vkg0ptGSzBLrOmnB3bTORdCZRnGIkiyUAPgjiaCKZP53H30Vl6vqrzeL3dC0WqjK7NXl3Dbu5TJy6ZfoqU/miU4YGGzO60zzigb4YXhKWKbTWM538qvQNltZO9MvUPWPYQezEKXNmiI46nxMFuo8Mt6Jx9Hh7k2f709gRF4UYWGjJxjQXXuKCRBYAMI/D5NkWNS/2GPKSKCxp2jJsIWsR10OzIWRhBtOmdKLEfm2ob/aJIjs7yZy4ziuILQudGik9LQwO/ZN05CPdchkMUlrHb7dQet9wBPFsPrHcluZVBSHGWOOv2BVYHcYI1H/I4p/EAIueUGlOy9gJsyjhUjM2/ZrP8Bakx9t5nJ09Qnxkx1/IMi3MRixruAa+xLD49CiWgXTr4M4Qtzc618hOUbJhv9Ti6/5YqYn0wtzVNSTe7QzFhvDN1aOkRJR1nWiGOfzTP+jqlgKSJGvcY5+kS8NO0gj2Tz/zWw2kcHI02mi6YdhJIpabEloWWR1cbL7cNuwtXZZObgusD75QpxBfr1+nDXtL34DNMwuxT0B2XC6wJvpVDoaT/7nW9SVs4iyZqR/sjBAvyeImYL814xw9Hk7dpLPkaxrMuOeTfUMXg89bGNOK4bs9VB80HDz5Irtqulawn1HzisjZN6LT6IOtRp8yHIkiS2NtU4t2xrMu5CYgRKw7TZpCBp5sffuK4WDKnx8ArLGqW7dmfbPqGbV2RZSF5r5u0paJf1f/lX2SdwzHqvyxhb8Ry/QqbWi5Nx2xTrd3D/fnPnT/zkJHtMumeVoFEAPAl//6e62lZzG8tO27NyNkuS7g4niAwRMMXwBcy0JIP+3yzLSvNRi683zD1TEY4k8PZSE2Q/nZDOXnmwzZp4eyEN+Ut9gMZeWbDNVPlGyGsrIZys83Jbs2Q1nZDOXnm/KH/ylvqP4cboayMhhS5Q3VTzpvhrIy+jlUM60OhvMtIgVjwFxQK06GPxFWTxGAPoh4qIJWL8x9FDzVedupWn0V/OpY9DNUsjtMgRBwD0AsPHmNavWJ7CHgAwDBcdT5LI1AHCi7I9CNKjsr47nMW0SUyRKOvQboeru/DIBdJ0pIxiUltAQ+DsrkSud2ZoZEZeuuMho7AfANlju38xSTqSA7pPDTR8U/ArhXmP5r7skOy5S5q9UUZaYsqKcPHb9vKPASh2vq65pOAHxkwap2kvvFvI9l17xC1FS7xsfz3F0Fr4GfyTo/k84jIuacsi7l/69Sziez7k61ttk/Mm+vGh5FiyiMaRowgA4FoUt66QjpDFZ5aWavZZ3fSFiKSmUnFnXK2DIQQvPYgoMWMlwW5LQTeysLMUuGlBCvECHnkuaByHSLJLOPxB9RMMwn+lj6e4H4pC90fP7yR3wVhkHa1LGTRcVcdeOLpGSJtyuKJIqyLAwd04zjsizpOXUpiGPTdMIsi6KuFH6JsXxLDlhpvsQwD6UJ4j1BUg5ZbohYfa+RjWTsnBQgKt7rDYEG3CB+sXnI+iBRw595XZ3LDXS3MhWQ9LIc9wv4G+dy8+d+bfz7WmTl2E4OrNPzKig+dFlfyiVhE0rZfcD7WwZ8MTsqy588lxsgAOtQqguWRGWgXe27YPGpqRphoBu4MaN3G/z8A7zCoVCsXK8l7p48zq9YV+ScP5WKvYdYr9YVm+4N+NDZ6iK+qbG0Nv+u6TcQ6VuOsTuhWV3c9rFK9i7njIOmdJKPTmi3Sts33T7DAxsqT9fq9zFnBtM6DqN/GV3nYknm7EX3NP2ZsPOraYRuzwRojC/B670Z8jX4bomlnVhkik5pfFndMg2/0hXu7bwF6K8VoImVed7UZZdxfjnWTY6JZ2HVpAHEIu78ztbInImSYVcCiUclzESuueXaTS2W8zHnf+aA+Dtf4teUNk2Tpm0LIYOMzxQG3c7HTGnnpTMzZ/sxNxjv2CwygC9IBf3ZDKVnM5SfzVB+NkP52QzlZzOUn81QfjZD+dkM5WczlJ/BUNUznQdDVftifJOhqh0HBkNVz3QeDFXNcg+GqqZkB0P1z3TOlMnlnQGCk+FuplbJKwNFJ0M1w9zI/BkMvVytjKzgIHisESax7NHKCwA45mRPVdBFqpAjQM2pLG9U5521ijgCPR8lLceV7CRLDekdgW7RsyTpRa1+USNfYkmg/4GXBzpdpxGyBkuYAta6I53bG7Xqt/IWJKNQsqwzvzangsATiRKSmCmW5IIVx/1U02c3/ZKZEZZMX/VkimJJfOdkqnupIDsrc6i9dgjKkvQnGOVleLcI9JHcEymymLZrSTuL2k+LBTTOHqtafjzZJdLOtGII8R/Pj5j2KWfWn7D18LCfzq4RLmqWeYu7isMlQ8AnL35HFr8nVjX78IXDw15O53ld3jkPIMPuMQM8ky04ZoF1cQBRTkVo9vWa67fzh11dbxYeynqZi4wu1tulf59D5IYNA4jDj5vuEKloluTszAlLQshOFDKLs5uewgnFac72w2dEPc7/AVsqszeneZcFAAAAAElFTkSuQmCC;" vertex="1" parent="1">
          <mxGeometry x="740" y="1877.55" width="80" height="80" as="geometry" />
        </mxCell>
        <mxCell id="gMgdH8OOwdyxqw79s65G-92" value="&lt;font style=&quot;font-size: 12px&quot;&gt;HTTP Request&lt;/font&gt;" style="text;html=1;resizable=0;autosize=1;align=center;verticalAlign=middle;points=[];fillColor=none;strokeColor=none;rounded=0;fontSize=11;fontStyle=1" vertex="1" parent="1">
          <mxGeometry x="405" y="1750.57" width="100" height="20" as="geometry" />
        </mxCell>
        <mxCell id="gMgdH8OOwdyxqw79s65G-93" value="&lt;font style=&quot;font-size: 12px&quot;&gt;HTTP Response&lt;/font&gt;" style="text;html=1;resizable=0;autosize=1;align=center;verticalAlign=middle;points=[];fillColor=none;strokeColor=none;rounded=0;fontSize=11;fontStyle=1" vertex="1" parent="1">
          <mxGeometry x="409.25" y="1792.11" width="110" height="20" as="geometry" />
        </mxCell>
        <mxCell id="gMgdH8OOwdyxqw79s65G-96" value="&lt;b&gt;&lt;font style=&quot;font-size: 12px&quot;&gt;Web App&lt;/font&gt;&lt;/b&gt;" style="text;html=1;resizable=0;autosize=1;align=center;verticalAlign=middle;points=[];fillColor=none;strokeColor=none;rounded=0;fontSize=14;" vertex="1" parent="1">
          <mxGeometry x="270" y="1865.57" width="70" height="20" as="geometry" />
        </mxCell>
        <mxCell id="gMgdH8OOwdyxqw79s65G-97" value="&lt;font style=&quot;font-size: 12px&quot;&gt;Admin (Website)&lt;/font&gt;" style="text;html=1;resizable=0;autosize=1;align=center;verticalAlign=middle;points=[];fillColor=none;strokeColor=none;rounded=0;fontSize=11;fontStyle=1" vertex="1" parent="1">
          <mxGeometry x="247.5" y="2129.9999999999995" width="110" height="20" as="geometry" />
        </mxCell>
        <mxCell id="gMgdH8OOwdyxqw79s65G-98" value="&lt;div style=&quot;font-size: 12px&quot;&gt;&lt;font style=&quot;font-size: 12px&quot;&gt;System Database&lt;/font&gt;&lt;/div&gt;&lt;div style=&quot;font-size: 12px&quot;&gt;&lt;font style=&quot;font-size: 12px&quot;&gt;&lt;br&gt;&lt;/font&gt;&lt;/div&gt;" style="text;html=1;resizable=0;autosize=1;align=center;verticalAlign=middle;points=[];fillColor=none;strokeColor=none;rounded=0;fontSize=11;fontStyle=1" vertex="1" parent="1">
          <mxGeometry x="725" y="1965.57" width="110" height="30" as="geometry" />
        </mxCell>
        <mxCell id="gMgdH8OOwdyxqw79s65G-100" value="" style="shape=image;imageAspect=0;aspect=fixed;verticalLabelPosition=bottom;verticalAlign=top;image=data:image/png,iVBORw0KGgoAAAANSUhEUgAAASUAAACsCAMAAAAKcUrhAAAAllBMVEUAiM/////z8/MAhc4AhM5wrdwAgs0AgM3s8fLU4Ow0lNNGmtXJ3Or49vQaj9H9+fWkz+eMvODW5e4AjNH3/P74/P7l7fHC4PKEvuTi8fkAj9JJotnq9fvO5vWJwOVwtOC53PBerN2cy+nZ7fiPx+i+2epRpdqv0OscmNXe8Pmfzeq23fGBtuAwnthyt+Fksd+r1u5Kp9tQ38LoAAAKl0lEQVR4nO2daUPjug6GQ+RxOC0JPaR0oUtINwozXfj/f+44wEBpFm+S43Lv+52p8oxsy7IsB1f/l1xB2wZchPynNJ0Nn+b5bpsCiyIG6XZ3mD8Nl1OXNvhN6X65yrtJwBkABB8CYIwHSTdfLe9d2eExpeenLBXO84nnuwB49JAdn52Y4iul6eMmYawa0CmqJD/26a3xk9Js/hDV+FAJVLSdL6nt8ZDS/SxPpV50yomlOTEn/yjNDqDD6E0syEg5+Ubp+RBoM3rjBPsxnVWeUVolRowKQfJCZpZXlIY7bsqowMS3MyLDfKK0CBTXtVpO6YrGMn8ojbeRHaNC0YYkzPSG0rBj6UjvgoRi1PlCacFRIBXh+ALfOk8o7ZEYvXFaoe+CvaDUPxiv/1XiGfbWzgdK/RzRkwoxbEweULrfIEMS3nTAHXTtU+rnqMPtXYDrTe1Twp2T/oqPMG2koqTs8XObTUmDGGYYjk7p+fdi/ueXUPZn/vJbGgkfaRgJwSPeR2FSGg/nOx5xJgRFDp8xHsFuNWs47lgi7ErqKKV4UTgepd9ZB1h5tQIO3WxY8zfTCfrydvLLO7RvQ6K0HBXHHXXmsuhhVZlLzIkmpXfxPc7HIVEaHxLZ57JkXx54j6SQhLCmJgRK40x+JFRwCkZnnMYJ4XgrBClS1GRPaaGchGWd47e/pImUToUVNdlSWm40Uh4QHU5S+EPq8Vaobt3QkyWlo2Y2H5JPs/uU69vn7+Gsc1aU+nPt3BkE848/7rlwpSA6Nn6BomwoTTcmH/qR1uhTT93vgglGCY8FJTNIAlNeYHohn7o/fg3DmcwpTbem38k2U/HXTlxJONNDm5Smr+bOwHL6gPLrxxCcyZTS/c5mxLAM51xJRbCxDy1NKY3sfMEZo+K37MtRDCktHM29GGJZS5SWbX+5lhLrIWdEyUnYjCewnr+NKM0vaLwFGEPOhNJljTfhSx3b+NuA0j19xgNZ3DYDbkBpdmmQAmabZjKgdFlTdyHoOqc0bPubDZRY1u/qU8oubsAF1scE2pSmadtfbCD25JjSytlmHlHwxzGly5u7heDVrp5Jl9LsEgdcAFu7rZwupadLnLuF7KJvXUoXF3e/K7ILBTQp3T+0/b1miuz2KJqUpnT1RqTidgGTJiV3SX1ccbtbYZqUVpc5LQXc7tqFJqWL3J4IcbtaVE1K+AXsbmRZsatJqUtFiZi+U1/qE1ECvqGN6Z3OS1MaSqzTu00o/uFPcbtjFA8oATvcxdSUXMZLFJT4bh3HITElp7E3PiVIV4M4DMkpudztYs/ewPOb2zCkp+Q2J4AbL4lZO4xDB5Qc55cwEycA2eCDETklt7nKER4lmNx8MqKmZHtsqUnpiJUTYLAYnECipuT2DGWMk1+CQIRIYeiMUmp5hUA3V4liNH/4nLXdUEosi050Kb3aL3KQzq/PGBFTgo0dJO3TAeuCSmCTdYkRtS9tLRsR6lGazW0/hnUWcQWk8DaIdKVzB4bDYWgBSoeSZu+/CkGQD6oYCf2jrz86ox+CiblDqVMaHiLb0ca360pHelOsrX81b53xxJSTKqXnzKz336mVwbzOkcykSamI9rtmIYEapf7CdqwV6cgbVEYGlIq1IzMJCpQoLa0unbxJbGzLy797SsVldIO0pQqll9Q2SAKe3d0iMzKkVNiiPTvJKU3tO//ApGHWdk2pqP/WzVxKKY0n1htc2J/vR9qlJKJ/zTS4jNIM5aRshLu42VISi53e+ZyE0gznDjLrUgw5c0rCIq0DumZKQ7QuklF+h47JhpJe24pGSkie9M4pWWDPTlaUtIp1mig9172MYGjWDjmstKOkU2HRQGm8Qz58g3SPGVnq7uNKYsrblQZKG/xaJd7p1c3i1/qypQSJ6r3nekokFyoBambx225HW9ZlKsrHdLWUHu2RVIqli6phd+um7cm5MYoLXR2lKZ3VsF1XUaL6uWZb1ILwOkp7wgJKCPalWLwtSmpXemsoEffZYul5HqUlSgEojbkaSthBQNm6/HsqpS1KQaCyzlVTctCgA+DbFrg1SjAxpdR30hyJnWad2vMllQZ7lZRWbm6bQPSVwWyPEkzkVTtVlKjqlSssTP7O4i36kkJPhipKTw4DPP5RxdQiJZYbUXJ6jQLSUeFOJUoObZBv5yoojR3f7mLbY3xe781GB9XHCBEMkKZQKig57xsEgQievlPivbjXcWUHbPUpuZu7v8SSXolSPMhws4D1imRDrkxp2Mpd+DMeglIYxjeOmhdIUwNlSl40xnujFMaDhf4blwaShkxlSuRbOBW9UxKc7g4uVjvZc2plSj640ielMA57D/QWsbUmpaEXd+E/KQlO13Prag6ZmOQdhxIlP3rinFASnNYTrNPTGsmapZco+XHL+xulMI7VHzcwE+hRInimzETfKRWrXU46i0vuz51TIrqZq6tzSsKd1lvCuSBqTjKdU1p26EzRUIlS4U5zOnfiPS1KJF2oQFtRmVIRi+s8K6IlyYb3nBJJn8WutjqPVSfA8TXVFliyRylRIvjPSu70qwAqGL0l6+4yEneSNCQ+p7Qm+L9KEAu8xCw+ITBRlxLBQiJ8CVFiFsfPqMCvH0ap4LTBNlGXEsmIw6VUzOLWt2K+i+lRIpq9sRVfj1CDJ8l2txQvIf70XxFQElpPEE3UjARmBK0WSSjFt2vEAFjSxcrFDoWCUjzIMHcJkv5MLna7+JTiuIe795V0HirllwgyJ/hr3E2OHDJFzWWoJUp77ynF1wvkOCAI0kZIZUov+GElKqU4XOO/FwavmpQIXuYW+zht1UIaZARZJj6vYtNA6Qo/wZQ83WhrUDPYXqyvWVdKUg9XpoTQyeRcb+/La6kyCxfe3hFl5TuSQoEyJS+6wVdkdMVgGxGlKiFvhlRBadZeVdqXypTieN2lOh6Q9o+tqF/y4aypROn2jrDsi8suEFRQ8uF094xSfN0jvM0jL/muoDQlM0ddZ2e7NzvK/zl517iq6lMP3qk4pRQP9rTlFB3pAxdVlDx41euLUkxeYCkrOKmh5MErQ1/1S3e0BQJCIH8rpZLSY+s1TB+U4nBFXuMFCm+DVlJqv/Dkg9LavqWRVKnC1a/qm1+PPlASsbaDmkoun5VqbxHadxOytL0nQiSaje13gVLDzxpKy5YfQOPHgZtRr9YVpu5280u7zgQTN9d1mMpNy4Z+Ai2XfTv69VStq1ctpWUrbRAcS/UBkPoOHmitvP2Vwv1BGSXSxgteiE1Umw02UOpnP9ubIFV+xrGpS1V/+5O9CTQayDd2PBu3v+0lE6j0EVCidDX+sd4EgU6jWEknxjFBQy8fpDPc5JSupvatTz0U03zUQt5HF/GhGF/EdpqPFCv0ZF64uortSlGu2+NbpXP1zEEuzJ1Y2nwzx5TSVX//Y9wJ2MTgwT3FdwdmP2QSZ4nRM6CqrzP0e8nl+xOkB7OniNRf+pguHojvGBOLBZlqr1NzSoLTS9dlwx9UAXT2msu/ISUx7h6zIGIXRwo4n7yYM9J/zeqqfzx0A345cxQw6GxWNohMKAlNh0/5Noo4L2r79O/kulFhG4+i9HU+NJ2N7Ci96X75ezHfZ798VZaNVseZ3YNo9pT+p/QfmRjlEw7GH7EAAAAASUVORK5CYII=;imageBorder=none;" vertex="1" parent="1">
          <mxGeometry x="470" y="1865.57" width="156.68" height="91.98" as="geometry" />
        </mxCell>
        <mxCell id="gMgdH8OOwdyxqw79s65G-106" value="" style="endArrow=classic;html=1;strokeColor=#BFBFBF;strokeWidth=2;fillColor=#81AAE6;" edge="1" parent="1">
          <mxGeometry width="50" height="50" relative="1" as="geometry">
            <mxPoint x="180" y="1792.57" as="sourcePoint" />
            <mxPoint x="223" y="1792.57" as="targetPoint" />
          </mxGeometry>
        </mxCell>
        <mxCell id="gMgdH8OOwdyxqw79s65G-112" value="" style="endArrow=classic;startArrow=classic;html=1;strokeColor=#BFBFBF;strokeWidth=3;fillColor=#81AAE6;" edge="1" parent="1">
          <mxGeometry width="50" height="50" relative="1" as="geometry">
            <mxPoint x="640" y="1920" as="sourcePoint" />
            <mxPoint x="735" y="1920.07" as="targetPoint" />
          </mxGeometry>
        </mxCell>
        <mxCell id="gMgdH8OOwdyxqw79s65G-113" value="&lt;div style=&quot;font-size: 12px&quot;&gt;RESTFul APIs&lt;/div&gt;" style="text;html=1;resizable=0;autosize=1;align=center;verticalAlign=middle;points=[];fillColor=none;strokeColor=none;rounded=0;fontSize=11;fontStyle=1" vertex="1" parent="1">
          <mxGeometry x="505" y="1970.57" width="100" height="20" as="geometry" />
        </mxCell>
        <mxCell id="gMgdH8OOwdyxqw79s65G-115" value="" style="shape=flexArrow;endArrow=classic;startArrow=classic;html=1;strokeColor=none;strokeWidth=1;fillColor=#BFBFBF;fontSize=12;endSize=4;startSize=4;" edge="1" parent="1">
          <mxGeometry width="50" height="50" relative="1" as="geometry">
            <mxPoint x="380" y="1781" as="sourcePoint" />
            <mxPoint x="560" y="1846.57" as="targetPoint" />
            <Array as="points">
              <mxPoint x="560" y="1780.57" />
            </Array>
          </mxGeometry>
        </mxCell>
        <mxCell id="gMgdH8OOwdyxqw79s65G-116" value="" style="shape=flexArrow;endArrow=classic;startArrow=classic;html=1;strokeColor=none;strokeWidth=1;fillColor=#BFBFBF;fontSize=12;endSize=4;startSize=4;" edge="1" parent="1">
          <mxGeometry width="50" height="50" relative="1" as="geometry">
            <mxPoint x="385" y="2070.43" as="sourcePoint" />
            <mxPoint x="560" y="2000" as="targetPoint" />
            <Array as="points">
              <mxPoint x="435" y="2070" />
              <mxPoint x="560" y="2070" />
            </Array>
          </mxGeometry>
        </mxCell>
        <mxCell id="gMgdH8OOwdyxqw79s65G-117" value="&lt;font style=&quot;font-size: 12px&quot;&gt;HTTP Response&lt;/font&gt;" style="text;html=1;resizable=0;autosize=1;align=center;verticalAlign=middle;points=[];fillColor=none;strokeColor=none;rounded=0;fontSize=11;fontStyle=1" vertex="1" parent="1">
          <mxGeometry x="410" y="2079.9999999999995" width="110" height="20" as="geometry" />
        </mxCell>
        <mxCell id="gMgdH8OOwdyxqw79s65G-118" value="&lt;font style=&quot;font-size: 12px&quot;&gt;HTTP Request&lt;/font&gt;" style="text;html=1;resizable=0;autosize=1;align=center;verticalAlign=middle;points=[];fillColor=none;strokeColor=none;rounded=0;fontSize=11;fontStyle=1" vertex="1" parent="1">
          <mxGeometry x="410" y="2040" width="100" height="20" as="geometry" />
        </mxCell>
      </root>
    </mxGraphModel>
  </diagram>
</mxfile>
